<?xml version="1.0" encoding="utf-8"?>
<!-- Generator: Adobe Illustrator 24.0.2, SVG Export Plug-In . SVG Version: 6.00 Build 0)  -->
<svg version="1.1" id="Layer_1" xmlns="http://www.w3.org/2000/svg" xmlns:xlink="http://www.w3.org/1999/xlink" x="0px" y="0px"
	 viewBox="0 0 180 180" style="enable-background:new 0 0 180 180;" xml:space="preserve">
<style type="text/css">
	.st0{fill:#FFFFFF;}
</style>
<g>
	<path class="st0" d="M83.08,103.63c-1.46-1.07-3.18-1.79-4.79-2.67v0c-0.69-0.56-1.46-0.84-2.36-0.75l0,0
		c-3.68-0.15-7.38-1.01-11,0.53c-8.35,3.56-12.74,11.82-10.6,20.11c2.22,8.61,10.49,13.77,20.06,12.53
		c3.36-0.21,6.22-1.53,8.58-3.92C91.38,122.99,91.47,109.81,83.08,103.63z"/>
	<path class="st0" d="M46.92,66.39c-3.98,0.01-7.39,3.25-7.42,7.04c-0.03,3.9,3.19,7.08,7.25,7.15c4.15,0.07,7.4-2.85,7.55-6.79
		C54.45,69.7,51.14,66.38,46.92,66.39z"/>
	<path class="st0" d="M41.59,114.19L41.59,114.19c-1.77-1.64-3.82-2.49-6.27-2.28c-6.55-0.26-11.53,3.76-12.2,9.85
		c-0.63,5.69,3.51,10.63,9.88,11.78v0l0,0c2.82,0.51,5.44,0.08,7.79-1.65C47.65,127.03,47.99,119.46,41.59,114.19z"/>
	<path class="st0" d="M99.53,121.73c-3.54,0.03-6.33,2.75-6.26,6.11c0.06,3.39,2.88,5.93,6.48,5.86c3.4-0.07,5.96-2.57,6.01-5.87
		C105.81,124.43,103.02,121.7,99.53,121.73z"/>
	<path class="st0" d="M155.42,93.01C155.42,93.01,155.42,93.01,155.42,93.01C155.42,93.01,155.42,93.01,155.42,93.01
		c-2.2-4.27-5.83-7.07-9.84-9.47c0,0,0,0,0,0c0,0,0,0,0,0c-3.27-2.33-6.91-3.62-10.91-3.94c0,0,0,0,0,0c0,0,0,0,0,0
		c-3.69-1-7.38-0.9-11.05,0.12c0,0,0,0,0,0c-0.49-0.18-0.98-0.36-1.47-0.53c8.14-4.92,5.38-18.66-1.61-20.67
		c-0.76-0.93-1.8-1.35-2.93-1.63c0,0,0,0,0,0c0,0,0,0,0,0c-7.61-3.03-15.8,2.09-17.75,8.76c-2.39,8.17,2.48,14.92,13.13,17.62
		c-10.75,7.43-16,17.28-12.69,30.17c2.58,10.03,9.44,16.42,19.43,19.33c4.91,1.87,9.93,2.24,15.04,1.01
		c1.34,0.01,2.68-0.01,3.82-0.88c5.2-1.24,9.65-3.72,13.13-7.84c0.98-0.57,1.66-1.41,2.17-2.41
		C160.85,113.7,161.43,102.47,155.42,93.01z"/>
</g>
</svg>
